<?xml version="1.0" encoding="utf-8"?>
<!-- Generator: Adobe Illustrator 19.1.0, SVG Export Plug-In . SVG Version: 6.00 Build 0)  -->
<svg version="1.1" id="Layer_1" xmlns="http://www.w3.org/2000/svg" xmlns:xlink="http://www.w3.org/1999/xlink" x="0px" y="0px"
	 viewBox="0 0 176.1 63" style="enable-background:new 0 0 176.1 63;" xml:space="preserve">
<style type="text/css">
	.st0{fill:#010101;}
</style>
<path class="st0" d="M23.7,49.1L23.7,49.1L23.7,49.1c-3.4,0-6.1-1.1-8.2-3.4l0,0l0,0c-2-2.3-3-5.4-3-9.4l0,0l0,0c0-4,1-7.1,3-9.4
	l0,0l0,0c2-2.3,4.7-3.5,8.1-3.5l0,0l0,0c5.3,0,8.7,2.4,10.2,7.2l0,0l-6,2l0,0c-0.8-2.1-2.2-3.2-4.1-3.2l0,0l0,0
	c-1.5,0-2.7,0.6-3.6,1.9l0,0l0,0c-0.9,1.2-1.4,2.9-1.4,5l0,0l0,0c0,2.1,0.4,3.7,1.3,5l0,0l0,0c0.9,1.2,2.1,1.8,3.5,1.8l0,0l0,0
	c2.1,0,3.6-1.2,4.3-3.6l0,0l6,1.8l0,0C32.5,46.5,29,49.1,23.7,49.1z M46.2,48.6H40V16.8l6.2-2.9v12.4l0,0c1.6-1.9,3.8-2.9,6.6-2.9
	l0,0l0,0c2.4,0,4.5,0.8,6.1,2.3l0,0l0,0c1.6,1.5,2.5,4,2.5,7.4l0,0v15.5h-6.2V34.9l0,0c0-3.6-1.4-5.4-4.3-5.4l0,0l0,0
	c-3.1,0-4.7,1.8-4.7,5.3l0,0V48.6z M88.4,48.6h-6.1v-1.8l0,0c-1.6,1.6-3.7,2.4-6.3,2.4l0,0l0,0c-2.7,0-4.8-0.7-6.5-2.1l0,0l0,0
	c-1.7-1.4-2.5-3.4-2.5-6l0,0l0,0c0-2.7,1-4.7,2.9-6l0,0l0,0c1.9-1.4,4.2-2.1,6.9-2.1l0,0l0,0c2.1,0,4,0.4,5.6,1.2l0,0v-1.2l0,0
	c0-2.6-1.5-3.9-4.4-3.9l0,0l0,0c-2.7,0-5.2,0.8-7.6,2.4l0,0l-1.9-5l0,0c2.8-1.9,6.2-2.9,10-2.9l0,0l0,0c1.3,0,2.5,0.1,3.5,0.3l0,0
	l0,0c1,0.2,2.1,0.6,3.1,1.2l0,0l0,0c1.1,0.6,1.9,1.6,2.5,2.9l0,0l0,0c0.6,1.3,0.9,3,0.9,5l0,0V48.6z M77.1,43.7L77.1,43.7L77.1,43.7
	c2,0,3.7-0.7,5.1-2l0,0V39l0,0c-1.3-0.5-2.9-0.8-4.6-0.8l0,0l0,0c-1.4,0-2.5,0.2-3.4,0.7l0,0l0,0C73.4,39.4,73,40.1,73,41l0,0l0,0
	c0,0.8,0.4,1.4,1.1,1.9l0,0l0,0C74.8,43.4,75.8,43.7,77.1,43.7z M101.4,48.6h-6.2V24h6.2v2.2l0,0c0.9-1.8,2.4-2.7,4.6-2.7l0,0l0,0
	c1.8,0,3.5,0.6,5,1.9l0,0l-0.9,5.7l0,0c-1.3-1-2.8-1.4-4.5-1.4l0,0l0,0c-2.8,0-4.2,1.8-4.2,5.3l0,0V48.6z M121.5,48.6h-6.2V16.8
	l6.2-2.9V48.6z M132.1,21.2L132.1,21.2L132.1,21.2c-1,0-1.8-0.4-2.6-1.1l0,0l0,0c-0.7-0.7-1.1-1.6-1.1-2.6l0,0l0,0
	c0-1,0.4-1.8,1.1-2.5l0,0l0,0c0.7-0.7,1.6-1.1,2.6-1.1l0,0l0,0c1,0,1.9,0.3,2.6,1l0,0l0,0c0.7,0.7,1.1,1.5,1.1,2.6l0,0l0,0
	c0,1-0.4,1.9-1.1,2.6l0,0l0,0C134,20.8,133.1,21.2,132.1,21.2z M135.2,48.6H129V24h6.2V48.6z M152.7,49.1L152.7,49.1L152.7,49.1
	c-3.6,0-6.4-1.1-8.4-3.4l0,0l0,0c-2-2.3-3.1-5.4-3.1-9.5l0,0l0,0c0-3.9,1-7.1,3.1-9.4l0,0l0,0c2.1-2.3,4.9-3.5,8.4-3.5l0,0l0,0
	c3.2,0,5.8,1,7.8,3l0,0l0,0c2,2,3,4.8,3,8.6l0,0l0,0c0,1.6-0.1,2.8-0.2,3.7l0,0h-16l0,0c0.1,1.5,0.7,2.7,1.7,3.6l0,0l0,0
	c1,0.9,2.2,1.3,3.6,1.3l0,0l0,0c2.2,0,3.9-0.8,5.3-2.5l0,0l3.8,3.9l0,0C159.6,47.8,156.5,49.1,152.7,49.1z M147.4,33.4L147.4,33.4
	h10l0,0c-0.2-1.4-0.7-2.5-1.6-3.3l0,0l0,0c-0.8-0.8-1.9-1.2-3.2-1.2l0,0l0,0C149.6,28.9,147.8,30.4,147.4,33.4z"/>
</svg>
