<?xml version="1.0" encoding="utf-8"?>
<!-- Generator: Adobe Illustrator 19.1.0, SVG Export Plug-In . SVG Version: 6.00 Build 0)  -->
<svg version="1.1" id="Layer_1" xmlns="http://www.w3.org/2000/svg" xmlns:xlink="http://www.w3.org/1999/xlink" x="0px" y="0px"
	 viewBox="0 0 282.6 329.3" style="enable-background:new 0 0 282.6 329.3;" xml:space="preserve">
<style type="text/css">
	.st0{fill:#010101;}
	.st1{fill:#FFFFFF;stroke:#010101;stroke-width:5;stroke-linecap:square;stroke-miterlimit:3;}
</style>
<g>
	<path class="st0" d="M71.9,88.9L188,18.5l-79.9,105.6L71.9,88.9z"/>
	<path class="st0" d="M106.6,157.4l80,71l-107-55L106.6,157.4z"/>
	<path class="st0" d="M184.7,236.4l-113-57.8l50.8,122.5L184.7,236.4z"/>
	<path class="st0" d="M111.6,56.1L13.5,24.9l53,58.1L111.6,56.1z"/>
	<path class="st0" d="M264,154.8l-48.1-87.5l24.7,111.3L264,154.8z"/>
	<path class="st0" d="M117.6,310.9l-36.6-88.4l8.5,88.4H117.6z"/>
	<path class="st0" d="M123.6,310.9h95.7l49.8-150.4L123.6,310.9z"/>
	<path vector-effect="non-scaling-stroke" class="st1" d="M107,144.6l-9.9,5.8l-19.8,11.7l-0.2-23l-0.2-23l20,11.3l9.9,5.6l12-4.5
		l21.6-8l-3.9,22.7l-3.9,22.7L115,151.3L107,144.6z"/>
</g>
</svg>
